<svg xmlns="http://www.w3.org/2000/svg" fill="#aaa" height="24" viewBox="0 -960 960 960" width="24"><path d="M358.269-260.001q-28.437 0-48.353-19.916-19.915-19.916-19.915-48.353v-455.383q0-28.437 19.915-48.353 19.916-19.916 48.353-19.916h335.383q28.438 0 48.353 19.916 19.916 19.916 19.916 48.353v455.383q0 28.437-19.916 48.353-19.915 19.916-48.353 19.916H358.269Zm0-55.961h335.383q4.616 0 8.462-3.846 3.847-3.846 3.847-8.462v-455.383q0-4.616-3.847-8.462-3.846-3.847-8.462-3.847H358.269q-4.615 0-8.462 3.847-3.846 3.846-3.846 8.462v455.383q0 4.616 3.846 8.462 3.847 3.846 8.462 3.846ZM226.348-128.08q-28.438 0-48.353-19.915-19.916-19.916-19.916-48.353v-511.343h55.96v511.343q0 4.615 3.847 8.462 3.846 3.846 8.462 3.846h391.343v55.96H226.348Zm119.613-187.882V-795.962v480Z"/></svg>