<svg xmlns="http://www.w3.org/2000/svg" fill="#ccc" height="24" viewBox="0 -960 960 960" width="24"><path d="M227.693-368.577v-177.577h-58.385v-45.269h103.653v222.846h-45.268Zm138.5 0v-96.154q0-14.352 9.708-24.06 9.709-9.709 24.061-9.709h87v-47.654H366.193v-45.269h132.203q14.296 0 24.065 9.709 9.769 9.708 9.769 24.06v62.385q0 14.352-9.708 24.06-9.709 9.709-24.061 9.709h-87v47.654H532.23v45.269H366.193Zm240.076 0v-45.269h120.77V-461.5h-80.77v-37h80.77v-47.654h-120.77v-45.269h132.204q14.296 0 24.065 9.709 9.769 9.708 9.769 24.06v155.308q0 14.352-9.708 24.06-9.709 9.709-24.061 9.709H606.269Z"/></svg>